<svg width="167" height="24" viewBox="0 0 167 24" fill="none" xmlns="http://www.w3.org/2000/svg">
<path d="M11.1159 0.600586H155.576C161.182 0.600586 165.781 5.73659 165.781 12.0726C165.781 18.4086 161.229 23.5446 155.576 23.5446H11.4034C5.79747 23.5446 1.19775 18.4086 1.19775 12.0726C1.19775 5.73659 5.74955 0.600586 11.4034 0.600586H11.1159Z" fill="white"/>
<path fill-rule="evenodd" clip-rule="evenodd" d="M166.236 12.0003C166.236 5.44358 161.5 0.132812 155.635 0.132812H10.6004C4.73596 0.132812 0 5.44358 0 12.0003C0 18.5571 4.73596 23.8679 10.6004 23.8679H155.635C161.5 23.8679 166.236 18.5571 166.236 12.0003ZM10.6004 0.827934H155.635C161.098 0.827934 165.542 5.81115 165.542 12.0004C165.542 18.1897 161.098 23.1729 155.635 23.1729H10.6004C5.13761 23.1729 0.693749 18.1897 0.693749 12.0004C0.693749 5.81115 5.13761 0.827934 10.6004 0.827934Z" fill="#1A1918"/>
<path fill-rule="evenodd" clip-rule="evenodd" d="M154.437 4.65625C153.335 4.65625 152.473 5.52025 152.473 6.57625C152.473 7.63225 153.335 8.49625 154.437 8.49625C155.539 8.49625 156.402 7.63225 156.402 6.57625C156.402 5.52025 155.539 4.65625 154.437 4.65625ZM154.437 8.20833C153.575 8.20833 152.808 7.48833 152.808 6.57633C152.808 5.66433 153.527 4.94433 154.437 4.94433C155.3 4.94433 156.066 5.66433 156.066 6.57633C156.066 7.48833 155.348 8.20833 154.437 8.20833ZM155.347 7.68025H154.964L154.389 6.67225H153.958V7.68025H153.671V5.52025H154.581C154.964 5.52025 155.347 5.61625 155.347 6.09625C155.347 6.52825 155.06 6.67225 154.773 6.67225L155.347 7.68025ZM154.006 6.33633V5.80833H154.581C154.82 5.80833 155.06 5.80833 155.06 6.09633C155.06 6.34939 154.727 6.34303 154.451 6.33777C154.413 6.33704 154.376 6.33633 154.341 6.33633H154.006ZM31.874 7.05633H36.2342V14.2563H42.7025V16.7523H31.874V7.05633ZM54.8246 7.05633H43.1816H43.1337V16.7523H55.2079V14.2563H47.5417V13.0563H53.9143V10.7523H47.5417V9.55233H54.8246V7.05633ZM87.7892 7.05633H99.4322V9.55233H92.1493V10.7523H98.5698V13.0563H92.1493V14.2563H99.8155V16.7523H87.7892V7.05633ZM137.859 7.05633H126.216H126.168V16.7523H138.242V14.2563H130.576V13.0563H136.949V10.7523H130.576V9.55233H137.859V7.05633ZM69.2466 10.6563C69.1508 10.3203 68.7675 9.21633 66.9468 9.21633C64.8865 9.21633 64.2157 10.5603 64.2157 11.8563C64.2157 13.1523 64.8865 14.4963 66.9468 14.4963C68.4321 14.4963 69.0071 13.7763 69.2466 12.8643H73.5589C73.5589 14.8323 71.2111 16.8963 67.0905 16.8963C62.4908 16.8963 59.9035 14.6883 59.9035 11.8563C59.9035 8.83233 62.7304 6.81633 67.0905 6.81633C70.9715 6.81633 73.1277 8.20833 73.511 10.6563H69.2466ZM106.524 16.9442C110.74 16.9442 112.8 15.6482 112.8 12.9602H112.848V7.00817H108.584V12.2882C108.584 13.2482 108.584 14.4962 106.571 14.4962C104.511 14.4962 104.511 13.2962 104.511 12.2882V7.00817H100.247V12.9602C100.247 15.6482 102.307 16.9442 106.524 16.9442ZM117.592 13.4882C117.592 13.7282 117.639 13.9682 117.735 14.1122C118.071 14.6882 119.029 14.8322 119.843 14.8322C120.562 14.8322 121.664 14.6882 121.664 13.9682C121.664 13.4882 121.041 13.3442 118.598 12.8642L118.385 12.8236C116.186 12.4037 113.758 11.9401 113.758 10.0802C113.758 7.87217 116.585 6.86417 119.508 6.86417C122.575 6.86417 125.306 7.68017 125.449 10.0322H121.329C121.425 9.64817 121.185 9.40817 120.802 9.26417C120.466 9.07217 119.939 9.02417 119.508 9.02417C118.933 9.02417 117.927 9.12017 117.927 9.69617C118.002 10.2193 119.237 10.4224 120.731 10.6679L120.731 10.6679L120.731 10.6679L120.731 10.668C121.156 10.7378 121.602 10.8111 122.048 10.8962C124.06 11.2802 126.072 11.9042 126.072 13.6802C126.072 16.1762 122.67 16.9922 119.508 16.9922C117.879 16.9922 113.279 16.6082 113.279 13.5362H117.592V13.4882ZM138.386 9.55233H141.98V16.7523H146.34V9.55233H149.838V7.05633H138.386V9.55233ZM84.3395 12.3363L86.9268 16.5123L87.0705 16.8003H82.5666L80.4105 13.3443H78.5898V16.7043H74.2297V7.05633H82.5666C85.0582 7.05633 87.2143 7.96833 87.2143 9.84033C87.2143 10.8483 86.5435 11.9043 85.1061 12.2403C85.1061 12.2403 84.7228 12.3363 84.4353 12.3363H84.3395ZM80.6502 9.36017H78.5899V11.2802H80.8897C81.7043 11.2802 82.8063 11.1842 82.8063 10.3202C82.8063 9.69617 82.3272 9.36017 80.6502 9.36017Z" fill="#131319"/>
<path fill-rule="evenodd" clip-rule="evenodd" d="M12.6127 21.1684C17.2124 21.1684 20.9976 17.8084 21.6684 13.4884V13.4404H19.1289C18.5061 16.4644 15.8229 18.6724 12.6127 18.6724C8.92334 18.6724 5.95269 15.7444 5.95269 12.0964C5.95269 8.44841 8.92334 5.52041 12.6127 5.52041C15.8229 5.52041 18.5061 7.72841 19.1289 10.7044H21.6684C20.9976 6.33641 17.2124 3.02441 12.6127 3.02441C7.58176 3.02441 3.46118 7.10441 3.46118 12.0964C3.46118 17.1364 7.53384 21.1684 12.6127 21.1684ZM12.6128 6.24033C9.35464 6.24033 6.67148 8.88033 6.67148 12.0963C6.67148 15.3123 9.30673 17.9523 12.6128 17.9523C15.8709 17.9523 18.5541 15.3123 18.5541 12.0963C18.5541 8.88033 15.9188 6.24033 12.6128 6.24033ZM12.6127 15.9363C10.4566 15.9363 8.73168 14.2083 8.73168 12.0963C8.73168 9.98433 10.4566 8.25633 12.6127 8.25633C14.7688 8.25633 16.4937 9.98433 16.4937 12.0963C16.4937 14.2083 14.7688 15.9363 12.6127 15.9363Z" fill="#131319"/>
<path fill-rule="evenodd" clip-rule="evenodd" d="M12.6129 15.2163C14.3378 15.2163 15.7273 13.8243 15.7273 12.1443C15.7273 10.4163 14.3378 9.07227 12.6129 9.07227C10.888 9.07227 9.49854 10.4643 9.49854 12.1443C9.49854 13.8243 10.888 15.2163 12.6129 15.2163Z" fill="#ED6E00"/>
</svg>
